<svg viewBox="830 1480 750 650" xmlns="http://www.w3.org/2000/svg" style="fill-rule:evenodd;clip-rule:evenodd;">
    <g transform="matrix(1,0,0,1,-0.00788654,30.4408)" fill="currentColor">
        <g transform="matrix(2.81948,0,-0.217717,2.81948,-3202.08,-405.582)">
            <path d="M1587.45,773.983C1587.06,771.735 1585.48,768.261 1575.39,766.83C1511.27,757.866 1511.27,743.856 1511.27,738.594C1511.27,722.172 1529.61,717.231 1538.43,714.863C1550.45,711.809 1562.7,709.727 1575.06,708.64C1585.34,707.26 1595.25,703.93 1604.27,698.829C1607.61,697.048 1610.8,695.107 1614,693.173C1620.1,689.246 1626.53,685.855 1633.22,683.038C1657.88,673.365 1693.34,668.82 1714.32,690.713C1734.29,711.536 1733.77,750.129 1716.13,774.079C1733.76,798.059 1735.73,834.973 1715.73,855.753C1697.53,874.721 1666.51,874.923 1643.33,868.423C1640.6,868.017 1637.24,867.085 1633.22,865.486C1626.53,862.632 1620.1,859.195 1614,855.216C1610.8,853.255 1607.61,851.288 1604.27,849.484C1595.25,844.314 1585.34,840.94 1575.06,839.542C1562.7,838.439 1550.45,836.329 1538.43,833.234C1529.61,830.835 1511.27,825.828 1511.27,809.185C1511.27,808.586 1511.46,808.1 1511.8,807.711C1511.78,807.553 1511.78,807.394 1511.77,807.234C1511.78,806.342 1511.96,805.463 1512.31,804.642C1513.93,800.808 1518.85,789.159 1575.38,781.296C1585.66,779.861 1587.09,776.315 1587.45,773.983ZM1703.96,766.899C1718.44,748.472 1712.83,722.941 1697.35,706.785C1681.18,689.894 1657.81,688.422 1638.32,696.089C1632.37,698.63 1626.66,701.678 1621.23,705.197C1617.82,707.302 1614.4,709.333 1610.84,711.225C1600.26,717.164 1588.64,721.023 1576.62,722.592C1564.98,723.612 1553.43,725.56 1542.1,728.412C1533.92,730.613 1525.28,733.378 1525.28,738.62C1526.38,740.298 1538.14,747.488 1577.35,752.954C1595.32,755.495 1600.4,765.008 1601.43,772.753C1601.47,773.011 1601.5,773.272 1601.52,773.536C1601.57,774.236 1601.52,774.922 1601.37,775.577C1600.25,783.301 1595.09,792.695 1577.32,795.171C1539.41,800.453 1527.19,807.322 1525.33,809.877C1526.08,814.728 1534.3,817.377 1542.1,819.504C1553.43,822.395 1564.98,824.368 1576.62,825.402C1587.78,826.878 1598.59,830.352 1608.54,835.655C1609.3,836.057 1610.07,836.47 1610.82,836.894C1614.43,838.799 1617.89,840.894 1621.34,842.992C1626.7,846.464 1632.36,849.47 1638.24,851.975C1658.68,859.973 1680.79,859.16 1696.97,842.304C1711.76,826.908 1718.37,802.338 1705.83,783.801C1699.32,788.972 1697.08,773.365 1703.43,767.354C1703.6,767.19 1703.78,767.038 1703.96,766.899Z" style="fill-rule:nonzero;"/>
        </g>
        <g transform="matrix(1.018,3.04921,3.32909,-1.11144,916.104,1377.09)">
            <path d="M179.119,108.111C178.846,109.705 153.549,122.675 154.486,117.034C154.679,115.869 156.663,114.783 158.442,111.994C160.276,109.117 161.912,104.535 162.393,103.342C166.721,92.612 172.441,84.258 182.348,78.531C186.465,76.359 193.736,71.591 195.982,75.669C198.224,79.747 192.844,81.926 188.805,84.238C181.477,88.647 180.504,100.036 179.119,108.111Z" style="fill-rule:nonzero;"/>
        </g>
        <g id="path561" transform="matrix(-2.89989,2.55472,-2.08259,-2.36397,3069.79,1339)">
            <path d="M401.809,214.217C401.809,214.217 406.765,205.654 406.844,203.168C400.262,190.824 397.08,186.88 385.995,177.918C384.149,176.425 371.955,167.348 371.747,174.789C371.599,180.059 381.443,186.783 384.204,190.858C393.319,204.307 394.348,208.055 397.529,220.634" style="fill-rule:nonzero;"/>
        </g>
    </g>
</svg>
