<svg viewBox="840 1480 1900 700" xmlns="http://www.w3.org/2000/svg" style="fill-rule:evenodd;clip-rule:evenodd;">
    <g transform="matrix(1,0,0,1,-0.00788654,30.4408)" fill="currentColor">
        <g transform="matrix(2.81948,0,-0.217717,2.81948,-3202.08,-405.582)">
            <path d="M1587.45,773.983C1587.06,771.735 1585.48,768.261 1575.39,766.83C1511.27,757.866 1511.27,743.856 1511.27,738.594C1511.27,722.172 1529.61,717.231 1538.43,714.863C1550.45,711.809 1562.7,709.727 1575.06,708.64C1585.34,707.26 1595.25,703.93 1604.27,698.829C1607.61,697.048 1610.8,695.107 1614,693.173C1620.1,689.246 1626.53,685.855 1633.22,683.038C1657.88,673.365 1693.34,668.82 1714.32,690.713C1734.29,711.536 1733.77,750.129 1716.13,774.079C1733.76,798.059 1735.73,834.973 1715.73,855.753C1697.53,874.721 1666.51,874.923 1643.33,868.423C1640.6,868.017 1637.24,867.085 1633.22,865.486C1626.53,862.632 1620.1,859.195 1614,855.216C1610.8,853.255 1607.61,851.288 1604.27,849.484C1595.25,844.314 1585.34,840.94 1575.06,839.542C1562.7,838.439 1550.45,836.329 1538.43,833.234C1529.61,830.835 1511.27,825.828 1511.27,809.185C1511.27,808.586 1511.46,808.1 1511.8,807.711C1511.78,807.553 1511.78,807.394 1511.77,807.234C1511.78,806.342 1511.96,805.463 1512.31,804.642C1513.93,800.808 1518.85,789.159 1575.38,781.296C1585.66,779.861 1587.09,776.315 1587.45,773.983ZM1703.96,766.899C1718.44,748.472 1712.83,722.941 1697.35,706.785C1681.18,689.894 1657.81,688.422 1638.32,696.089C1632.37,698.63 1626.66,701.678 1621.23,705.197C1617.82,707.302 1614.4,709.333 1610.84,711.225C1600.26,717.164 1588.64,721.023 1576.62,722.592C1564.98,723.612 1553.43,725.56 1542.1,728.412C1533.92,730.613 1525.28,733.378 1525.28,738.62C1526.38,740.298 1538.14,747.488 1577.35,752.954C1595.32,755.495 1600.4,765.008 1601.43,772.753C1601.47,773.011 1601.5,773.272 1601.52,773.536C1601.57,774.236 1601.52,774.922 1601.37,775.577C1600.25,783.301 1595.09,792.695 1577.32,795.171C1539.41,800.453 1527.19,807.322 1525.33,809.877C1526.08,814.728 1534.3,817.377 1542.1,819.504C1553.43,822.395 1564.98,824.368 1576.62,825.402C1587.78,826.878 1598.59,830.352 1608.54,835.655C1609.3,836.057 1610.07,836.47 1610.82,836.894C1614.43,838.799 1617.89,840.894 1621.34,842.992C1626.7,846.464 1632.36,849.47 1638.24,851.975C1658.68,859.973 1680.79,859.16 1696.97,842.304C1711.76,826.908 1718.37,802.338 1705.83,783.801C1699.32,788.972 1697.08,773.365 1703.43,767.354C1703.6,767.19 1703.78,767.038 1703.96,766.899Z" style="fill-rule:nonzero;"/>
        </g>
        <g transform="matrix(1.018,3.04921,3.32909,-1.11144,916.104,1377.09)">
            <path d="M179.119,108.111C178.846,109.705 153.549,122.675 154.486,117.034C154.679,115.869 156.663,114.783 158.442,111.994C160.276,109.117 161.912,104.535 162.393,103.342C166.721,92.612 172.441,84.258 182.348,78.531C186.465,76.359 193.736,71.591 195.982,75.669C198.224,79.747 192.844,81.926 188.805,84.238C181.477,88.647 180.504,100.036 179.119,108.111Z" style="fill-rule:nonzero;"/>
        </g>
        <g transform="matrix(2.49112,0,0.293611,3.14746,-514.36,110.447)">
            <g transform="matrix(200,0,0,200,751.006,597.731)">
                <path d="M0.233,-0.387C0.252,-0.388 0.272,-0.387 0.293,-0.384C0.313,-0.38 0.331,-0.374 0.347,-0.367C0.363,-0.359 0.376,-0.349 0.385,-0.337C0.394,-0.325 0.398,-0.311 0.396,-0.295C0.394,-0.283 0.388,-0.269 0.379,-0.253C0.37,-0.237 0.355,-0.221 0.334,-0.206C0.313,-0.191 0.286,-0.177 0.253,-0.165C0.219,-0.152 0.177,-0.143 0.127,-0.138C0.125,-0.125 0.125,-0.114 0.128,-0.105C0.131,-0.096 0.137,-0.089 0.146,-0.086C0.167,-0.077 0.19,-0.075 0.215,-0.08C0.239,-0.085 0.263,-0.094 0.288,-0.108C0.312,-0.121 0.335,-0.137 0.358,-0.155C0.38,-0.173 0.4,-0.19 0.418,-0.207C0.427,-0.216 0.436,-0.221 0.445,-0.224C0.454,-0.226 0.462,-0.225 0.467,-0.222C0.472,-0.219 0.475,-0.213 0.474,-0.204C0.473,-0.195 0.468,-0.185 0.457,-0.172C0.439,-0.15 0.417,-0.128 0.39,-0.105C0.363,-0.082 0.334,-0.062 0.302,-0.044C0.27,-0.026 0.236,-0.012 0.201,-0.002C0.166,0.008 0.13,0.011 0.094,0.007C0.08,0.005 0.066,0.001 0.051,-0.005C0.036,-0.011 0.023,-0.02 0.012,-0.032C0.001,-0.044 -0.008,-0.059 -0.015,-0.077C-0.021,-0.095 -0.023,-0.117 -0.02,-0.143C-0.017,-0.169 -0.008,-0.196 0.008,-0.224C0.024,-0.252 0.044,-0.278 0.068,-0.301C0.092,-0.324 0.119,-0.344 0.148,-0.36C0.177,-0.376 0.205,-0.385 0.233,-0.387ZM0.24,-0.295C0.232,-0.293 0.224,-0.289 0.216,-0.284C0.207,-0.278 0.199,-0.271 0.191,-0.262C0.183,-0.253 0.175,-0.244 0.169,-0.233C0.162,-0.222 0.155,-0.21 0.149,-0.199C0.18,-0.205 0.206,-0.214 0.228,-0.227C0.249,-0.24 0.265,-0.252 0.274,-0.264C0.283,-0.275 0.285,-0.285 0.28,-0.292C0.275,-0.299 0.262,-0.3 0.24,-0.295Z" style="fill-rule:nonzero;"/>
            </g>
            <g transform="matrix(200,0,0,200,834.606,597.731)">
                <path d="M0.324,-0.314C0.33,-0.304 0.332,-0.294 0.33,-0.283C0.328,-0.272 0.324,-0.263 0.317,-0.255C0.31,-0.247 0.303,-0.241 0.294,-0.238C0.285,-0.235 0.276,-0.236 0.268,-0.241C0.261,-0.244 0.25,-0.247 0.233,-0.249C0.216,-0.25 0.197,-0.251 0.176,-0.251C0.151,-0.214 0.128,-0.176 0.105,-0.138C0.082,-0.1 0.061,-0.065 0.042,-0.034C0.023,-0.002 0.008,0.025 -0.006,0.047C-0.019,0.069 -0.028,0.083 -0.033,0.088C-0.041,0.097 -0.052,0.103 -0.066,0.105C-0.079,0.106 -0.093,0.106 -0.106,0.103C-0.118,0.1 -0.13,0.096 -0.14,0.092C-0.15,0.087 -0.155,0.082 -0.156,0.078C-0.158,0.07 -0.154,0.055 -0.145,0.034C-0.135,0.012 -0.121,-0.014 -0.104,-0.044C-0.086,-0.074 -0.066,-0.107 -0.043,-0.143C-0.02,-0.178 0.005,-0.214 0.03,-0.249L0.022,-0.249C0.019,-0.249 0.016,-0.249 0.015,-0.25C0.01,-0.251 0.007,-0.255 0.007,-0.261C0.006,-0.266 0.008,-0.273 0.011,-0.28C0.014,-0.286 0.017,-0.293 0.022,-0.299C0.027,-0.305 0.032,-0.309 0.037,-0.311C0.039,-0.312 0.044,-0.314 0.052,-0.315C0.06,-0.316 0.07,-0.318 0.081,-0.319C0.112,-0.36 0.142,-0.397 0.17,-0.429C0.198,-0.46 0.222,-0.482 0.241,-0.495C0.264,-0.51 0.29,-0.52 0.317,-0.526C0.344,-0.531 0.371,-0.533 0.397,-0.532C0.422,-0.53 0.445,-0.525 0.465,-0.518C0.485,-0.511 0.5,-0.501 0.509,-0.489C0.515,-0.481 0.516,-0.471 0.513,-0.459C0.51,-0.447 0.504,-0.436 0.495,-0.427C0.486,-0.418 0.476,-0.411 0.465,-0.407C0.454,-0.402 0.443,-0.403 0.434,-0.41C0.425,-0.417 0.418,-0.425 0.413,-0.435C0.408,-0.445 0.404,-0.454 0.4,-0.462C0.395,-0.469 0.39,-0.475 0.385,-0.478C0.38,-0.481 0.372,-0.479 0.363,-0.472C0.343,-0.459 0.322,-0.44 0.3,-0.415C0.278,-0.39 0.256,-0.363 0.233,-0.332C0.256,-0.332 0.275,-0.331 0.292,-0.329C0.309,-0.326 0.319,-0.321 0.324,-0.314Z" style="fill-rule:nonzero;"/>
            </g>
            <g transform="matrix(200,0,0,200,898.206,597.731)">
                <path d="M0.289,-0.387C0.318,-0.389 0.343,-0.383 0.364,-0.37C0.385,-0.356 0.401,-0.337 0.41,-0.314C0.419,-0.323 0.428,-0.332 0.437,-0.34C0.445,-0.347 0.453,-0.353 0.46,-0.357C0.474,-0.366 0.489,-0.371 0.505,-0.374C0.52,-0.376 0.534,-0.376 0.547,-0.374C0.56,-0.371 0.57,-0.366 0.578,-0.359C0.585,-0.352 0.588,-0.342 0.587,-0.331C0.586,-0.324 0.581,-0.314 0.572,-0.302C0.563,-0.289 0.552,-0.276 0.539,-0.262C0.526,-0.248 0.512,-0.234 0.497,-0.219C0.482,-0.204 0.469,-0.191 0.457,-0.178C0.445,-0.165 0.436,-0.155 0.429,-0.146C0.422,-0.136 0.419,-0.13 0.422,-0.127C0.427,-0.12 0.437,-0.119 0.45,-0.123C0.463,-0.127 0.478,-0.134 0.494,-0.144C0.509,-0.153 0.525,-0.164 0.54,-0.176C0.555,-0.187 0.566,-0.198 0.575,-0.207C0.584,-0.216 0.592,-0.222 0.6,-0.225C0.608,-0.228 0.614,-0.228 0.619,-0.225C0.623,-0.222 0.625,-0.216 0.625,-0.209C0.625,-0.201 0.621,-0.191 0.614,-0.179C0.609,-0.171 0.6,-0.161 0.589,-0.149C0.577,-0.136 0.563,-0.123 0.548,-0.11C0.532,-0.097 0.515,-0.084 0.497,-0.071C0.479,-0.058 0.461,-0.046 0.443,-0.036C0.425,-0.025 0.408,-0.017 0.392,-0.011C0.375,-0.004 0.361,-0.002 0.349,-0.003C0.322,-0.006 0.3,-0.013 0.284,-0.026C0.268,-0.039 0.259,-0.054 0.257,-0.073C0.233,-0.057 0.208,-0.042 0.182,-0.029C0.155,-0.015 0.13,-0.005 0.106,0.002C0.081,0.009 0.059,0.01 0.038,0.007C0.017,0.004 0.001,-0.007 -0.011,-0.026C-0.025,-0.047 -0.032,-0.071 -0.033,-0.097C-0.033,-0.122 -0.028,-0.148 -0.017,-0.174C-0.006,-0.2 0.009,-0.225 0.029,-0.25C0.049,-0.274 0.073,-0.296 0.1,-0.315C0.127,-0.334 0.156,-0.351 0.189,-0.364C0.221,-0.377 0.254,-0.384 0.289,-0.387ZM0.308,-0.188C0.311,-0.193 0.315,-0.199 0.321,-0.207C0.327,-0.215 0.332,-0.224 0.337,-0.233C0.341,-0.242 0.343,-0.252 0.343,-0.261C0.343,-0.27 0.338,-0.277 0.328,-0.283C0.317,-0.29 0.304,-0.291 0.289,-0.287C0.273,-0.283 0.257,-0.276 0.24,-0.265C0.223,-0.254 0.207,-0.242 0.192,-0.227C0.177,-0.212 0.164,-0.198 0.154,-0.183C0.144,-0.167 0.138,-0.154 0.135,-0.141C0.132,-0.128 0.134,-0.118 0.143,-0.111C0.15,-0.106 0.159,-0.105 0.171,-0.108C0.183,-0.111 0.197,-0.116 0.212,-0.124C0.227,-0.132 0.242,-0.142 0.259,-0.154C0.276,-0.165 0.292,-0.177 0.308,-0.188Z" style="fill-rule:nonzero;"/>
            </g>
            <g transform="matrix(200,0,0,200,1013.21,597.731)">
                <path d="M0.045,-0.062C0.036,-0.051 0.027,-0.041 0.018,-0.032C0.009,-0.023 0.002,-0.016 -0.004,-0.011C-0.009,-0.007 -0.017,-0.004 -0.027,-0.003C-0.037,-0.002 -0.047,-0.002 -0.058,-0.004C-0.068,-0.005 -0.077,-0.008 -0.086,-0.013C-0.094,-0.017 -0.099,-0.022 -0.102,-0.029C-0.104,-0.034 -0.101,-0.044 -0.094,-0.059C-0.086,-0.074 -0.076,-0.091 -0.063,-0.112C-0.05,-0.133 -0.036,-0.155 -0.02,-0.179C-0.004,-0.202 0.012,-0.225 0.027,-0.246C0.042,-0.267 0.056,-0.286 0.069,-0.303C0.081,-0.319 0.09,-0.33 0.096,-0.337C0.105,-0.347 0.116,-0.355 0.129,-0.361C0.142,-0.366 0.156,-0.37 0.169,-0.372C0.182,-0.373 0.193,-0.373 0.204,-0.37C0.214,-0.367 0.22,-0.362 0.223,-0.354C0.224,-0.349 0.222,-0.339 0.217,-0.327C0.212,-0.314 0.204,-0.298 0.194,-0.28C0.217,-0.303 0.239,-0.323 0.262,-0.34C0.285,-0.357 0.307,-0.368 0.328,-0.373C0.343,-0.377 0.357,-0.379 0.372,-0.379C0.386,-0.378 0.399,-0.376 0.41,-0.371C0.421,-0.366 0.429,-0.358 0.435,-0.348C0.441,-0.337 0.443,-0.324 0.44,-0.307C0.439,-0.3 0.434,-0.291 0.427,-0.28C0.42,-0.268 0.411,-0.255 0.4,-0.242C0.389,-0.229 0.378,-0.215 0.367,-0.202C0.355,-0.188 0.344,-0.175 0.335,-0.164C0.326,-0.152 0.318,-0.142 0.313,-0.134C0.308,-0.125 0.306,-0.12 0.308,-0.119C0.311,-0.116 0.319,-0.118 0.331,-0.125C0.342,-0.132 0.355,-0.14 0.369,-0.15C0.382,-0.16 0.396,-0.171 0.409,-0.182C0.422,-0.193 0.432,-0.201 0.438,-0.207C0.444,-0.213 0.451,-0.217 0.458,-0.218C0.465,-0.219 0.471,-0.219 0.476,-0.217C0.481,-0.214 0.483,-0.21 0.484,-0.205C0.485,-0.199 0.482,-0.192 0.475,-0.184C0.431,-0.132 0.389,-0.092 0.35,-0.065C0.311,-0.038 0.276,-0.021 0.246,-0.014C0.216,-0.007 0.192,-0.008 0.173,-0.019C0.154,-0.029 0.144,-0.045 0.141,-0.067C0.14,-0.078 0.142,-0.089 0.149,-0.102C0.156,-0.114 0.164,-0.126 0.175,-0.139C0.185,-0.151 0.196,-0.163 0.208,-0.176C0.22,-0.188 0.231,-0.199 0.24,-0.21C0.249,-0.221 0.255,-0.23 0.26,-0.239C0.264,-0.248 0.263,-0.255 0.258,-0.26C0.255,-0.263 0.248,-0.262 0.238,-0.255C0.227,-0.247 0.215,-0.238 0.201,-0.226C0.187,-0.213 0.172,-0.199 0.156,-0.183C0.14,-0.166 0.125,-0.15 0.111,-0.135C0.096,-0.119 0.084,-0.105 0.073,-0.093C0.062,-0.08 0.054,-0.071 0.049,-0.066L0.045,-0.062Z" style="fill-rule:nonzero;"/>
            </g>
            <g transform="matrix(200,0,0,200,1100.81,597.731)">
                <path d="M0.371,-0.367C0.377,-0.373 0.386,-0.377 0.398,-0.378C0.409,-0.379 0.421,-0.379 0.433,-0.376C0.445,-0.373 0.456,-0.369 0.466,-0.362C0.475,-0.355 0.481,-0.345 0.482,-0.334C0.483,-0.327 0.478,-0.311 0.466,-0.286C0.454,-0.261 0.438,-0.232 0.417,-0.199C0.396,-0.166 0.373,-0.13 0.346,-0.093C0.319,-0.056 0.291,-0.021 0.262,0.013C0.233,0.046 0.205,0.074 0.176,0.099C0.147,0.124 0.121,0.139 0.098,0.146C0.067,0.155 0.037,0.16 0.009,0.159C-0.02,0.158 -0.045,0.154 -0.067,0.146C-0.089,0.138 -0.107,0.128 -0.122,0.115C-0.136,0.101 -0.144,0.088 -0.147,0.073C-0.149,0.064 -0.147,0.055 -0.141,0.046C-0.134,0.037 -0.126,0.029 -0.116,0.022C-0.106,0.015 -0.095,0.011 -0.084,0.009C-0.073,0.007 -0.063,0.009 -0.054,0.015C-0.048,0.019 -0.043,0.025 -0.04,0.033C-0.036,0.04 -0.032,0.048 -0.029,0.055C-0.026,0.062 -0.022,0.069 -0.017,0.074C-0.012,0.079 -0.005,0.081 0.004,0.08C0.023,0.077 0.045,0.065 0.069,0.043C0.092,0.02 0.117,-0.007 0.142,-0.04C0.119,-0.025 0.094,-0.014 0.068,-0.007C0.041,0 0.016,-0.003 -0.009,-0.014C-0.027,-0.022 -0.038,-0.035 -0.042,-0.054C-0.046,-0.072 -0.045,-0.093 -0.04,-0.116C-0.034,-0.139 -0.024,-0.164 -0.011,-0.19C0.003,-0.215 0.019,-0.24 0.036,-0.263C0.053,-0.286 0.071,-0.306 0.09,-0.323C0.109,-0.34 0.126,-0.353 0.143,-0.36C0.159,-0.367 0.174,-0.37 0.188,-0.371C0.201,-0.372 0.213,-0.371 0.224,-0.368C0.234,-0.365 0.242,-0.36 0.249,-0.355C0.256,-0.35 0.26,-0.345 0.263,-0.34C0.266,-0.335 0.262,-0.326 0.253,-0.313C0.244,-0.3 0.232,-0.286 0.217,-0.269C0.202,-0.252 0.187,-0.235 0.17,-0.216C0.153,-0.197 0.138,-0.18 0.126,-0.164C0.113,-0.147 0.105,-0.133 0.1,-0.122C0.094,-0.11 0.097,-0.102 0.107,-0.099C0.115,-0.096 0.125,-0.096 0.136,-0.1C0.147,-0.103 0.159,-0.109 0.172,-0.117C0.184,-0.125 0.196,-0.134 0.208,-0.146C0.22,-0.157 0.231,-0.168 0.24,-0.18C0.254,-0.201 0.267,-0.221 0.28,-0.241C0.293,-0.26 0.305,-0.278 0.316,-0.295C0.327,-0.311 0.338,-0.325 0.347,-0.338C0.356,-0.351 0.364,-0.36 0.371,-0.367Z" style="fill-rule:nonzero;"/>
            </g>
        </g>
        <g id="path561" transform="matrix(-2.89989,2.55472,-2.08259,-2.36397,3069.79,1339)">
            <path d="M401.809,214.217C401.809,214.217 406.765,205.654 406.844,203.168C400.262,190.824 397.08,186.88 385.995,177.918C384.149,176.425 371.955,167.348 371.747,174.789C371.599,180.059 381.443,186.783 384.204,190.858C393.319,204.307 394.348,208.055 397.529,220.634" style="fill-rule:nonzero;"/>
        </g>
        <g transform="matrix(1.17377,0,0,1.17377,-11.2812,-252.642)">
            <g transform="matrix(85.0509,0,0,85.0509,1331.2,1580.48)">
                <path d="M0.092,0C0.085,0 0.082,-0.003 0.082,-0.01L0.082,-0.69C0.082,-0.697 0.085,-0.7 0.092,-0.7L0.334,-0.7C0.403,-0.7 0.459,-0.682 0.5,-0.646C0.541,-0.609 0.562,-0.561 0.562,-0.5L0.562,-0.2C0.562,-0.139 0.541,-0.091 0.5,-0.055C0.459,-0.018 0.403,0 0.334,0L0.092,0ZM0.178,-0.087C0.178,-0.084 0.179,-0.083 0.182,-0.083L0.338,-0.083C0.377,-0.083 0.408,-0.095 0.431,-0.119C0.454,-0.142 0.465,-0.174 0.466,-0.214L0.466,-0.486C0.466,-0.526 0.455,-0.558 0.432,-0.582C0.409,-0.605 0.377,-0.617 0.338,-0.617L0.182,-0.617C0.179,-0.617 0.178,-0.616 0.178,-0.613L0.178,-0.087Z" style="fill-rule:nonzero;"/>
            </g>
            <g transform="matrix(85.0509,0,0,85.0509,1400.77,1580.48)">
                <path d="M0.547,-0.627C0.547,-0.62 0.544,-0.617 0.537,-0.617L0.182,-0.617C0.179,-0.617 0.178,-0.616 0.178,-0.613L0.178,-0.398C0.178,-0.395 0.179,-0.394 0.182,-0.394L0.426,-0.394C0.433,-0.394 0.436,-0.391 0.436,-0.384L0.436,-0.321C0.436,-0.314 0.433,-0.311 0.426,-0.311L0.182,-0.311C0.179,-0.311 0.178,-0.31 0.178,-0.307L0.178,-0.087C0.178,-0.084 0.179,-0.083 0.182,-0.083L0.537,-0.083C0.544,-0.083 0.547,-0.08 0.547,-0.073L0.547,-0.01C0.547,-0.003 0.544,0 0.537,0L0.092,0C0.085,0 0.082,-0.003 0.082,-0.01L0.082,-0.69C0.082,-0.697 0.085,-0.7 0.092,-0.7L0.537,-0.7C0.544,-0.7 0.547,-0.697 0.547,-0.69L0.547,-0.627Z" style="fill-rule:nonzero;"/>
            </g>
            <g transform="matrix(85.0509,0,0,85.0509,1468.64,1580.48)">
                <path d="M0.494,-0.69C0.494,-0.697 0.497,-0.7 0.504,-0.7L0.58,-0.7C0.587,-0.7 0.59,-0.697 0.59,-0.69L0.59,-0.01C0.59,-0.003 0.587,0 0.58,0L0.507,0C0.502,0 0.498,-0.002 0.495,-0.007L0.182,-0.518C0.181,-0.52 0.18,-0.521 0.179,-0.521C0.178,-0.52 0.177,-0.519 0.177,-0.517L0.178,-0.01C0.178,-0.003 0.175,0 0.168,0L0.092,0C0.085,0 0.082,-0.003 0.082,-0.01L0.082,-0.69C0.082,-0.697 0.085,-0.7 0.092,-0.7L0.166,-0.7C0.171,-0.7 0.175,-0.698 0.178,-0.693L0.49,-0.182C0.491,-0.18 0.492,-0.179 0.493,-0.18C0.494,-0.18 0.495,-0.181 0.495,-0.183L0.494,-0.69Z" style="fill-rule:nonzero;"/>
            </g>
            <g transform="matrix(85.0509,0,0,85.0509,1542.89,1580.48)">
                <path d="M0.527,-0.7C0.534,-0.7 0.537,-0.697 0.537,-0.69L0.537,-0.626C0.537,-0.619 0.534,-0.616 0.527,-0.616L0.335,-0.616C0.332,-0.616 0.331,-0.615 0.331,-0.612L0.331,-0.01C0.331,-0.003 0.328,0 0.321,0L0.245,0C0.238,0 0.235,-0.003 0.235,-0.01L0.235,-0.612C0.235,-0.615 0.234,-0.616 0.231,-0.616L0.048,-0.616C0.041,-0.616 0.038,-0.619 0.038,-0.626L0.038,-0.69C0.038,-0.697 0.041,-0.7 0.048,-0.7L0.527,-0.7Z" style="fill-rule:nonzero;"/>
            </g>
            <g transform="matrix(85.0509,0,0,85.0509,1603.7,1580.48)">
                <path d="M0.507,0C0.501,0 0.497,-0.003 0.495,-0.008L0.459,-0.125C0.458,-0.127 0.457,-0.128 0.455,-0.128L0.174,-0.128C0.172,-0.128 0.171,-0.127 0.17,-0.125L0.134,-0.008C0.132,-0.003 0.128,0 0.122,0L0.041,0C0.034,0 0.031,-0.004 0.033,-0.011L0.252,-0.692C0.254,-0.697 0.258,-0.7 0.264,-0.7L0.364,-0.7C0.37,-0.7 0.374,-0.697 0.376,-0.692L0.597,-0.011L0.598,-0.007C0.598,-0.002 0.595,0 0.589,0L0.507,0ZM0.195,-0.209C0.194,-0.208 0.195,-0.207 0.196,-0.206C0.197,-0.205 0.198,-0.204 0.199,-0.204L0.429,-0.204C0.43,-0.204 0.432,-0.205 0.433,-0.206C0.434,-0.207 0.434,-0.208 0.433,-0.209L0.317,-0.58C0.316,-0.581 0.315,-0.582 0.314,-0.582C0.313,-0.582 0.312,-0.581 0.311,-0.58L0.195,-0.209ZM0.272,-0.764C0.268,-0.764 0.265,-0.765 0.264,-0.768C0.262,-0.77 0.262,-0.773 0.264,-0.776L0.323,-0.884C0.325,-0.889 0.329,-0.891 0.335,-0.891L0.402,-0.891C0.406,-0.891 0.409,-0.89 0.41,-0.888C0.411,-0.885 0.41,-0.882 0.408,-0.879L0.337,-0.771C0.334,-0.766 0.33,-0.764 0.325,-0.764L0.272,-0.764Z" style="fill-rule:nonzero;"/>
            </g>
            <g transform="matrix(85.0509,0,0,85.0509,1674.3,1580.48)">
                <path d="M0.092,0C0.085,0 0.082,-0.003 0.082,-0.01L0.082,-0.69C0.082,-0.697 0.085,-0.7 0.092,-0.7L0.168,-0.7C0.175,-0.7 0.178,-0.697 0.178,-0.69L0.178,-0.087C0.178,-0.084 0.179,-0.083 0.182,-0.083L0.527,-0.083C0.534,-0.083 0.537,-0.08 0.537,-0.073L0.537,-0.01C0.537,-0.003 0.534,0 0.527,0L0.092,0Z" style="fill-rule:nonzero;"/>
            </g>
            <g transform="matrix(85.0509,0,0,85.0509,1739.78,1580.48)">
                <path d="M0.494,-0.69C0.494,-0.697 0.497,-0.7 0.504,-0.7L0.58,-0.7C0.587,-0.7 0.59,-0.697 0.59,-0.69L0.59,-0.01C0.59,-0.003 0.587,0 0.58,0L0.507,0C0.502,0 0.498,-0.002 0.495,-0.007L0.182,-0.518C0.181,-0.52 0.18,-0.521 0.179,-0.521C0.178,-0.52 0.177,-0.519 0.177,-0.517L0.178,-0.01C0.178,-0.003 0.175,0 0.168,0L0.092,0C0.085,0 0.082,-0.003 0.082,-0.01L0.082,-0.69C0.082,-0.697 0.085,-0.7 0.092,-0.7L0.166,-0.7C0.171,-0.7 0.175,-0.698 0.178,-0.693L0.49,-0.182C0.491,-0.18 0.492,-0.179 0.493,-0.18C0.494,-0.18 0.495,-0.181 0.495,-0.183L0.494,-0.69Z" style="fill-rule:nonzero;"/>
            </g>
            <g transform="matrix(85.0509,0,0,85.0509,1814.03,1580.48)">
                <path d="M0.092,0C0.085,0 0.082,-0.003 0.082,-0.01L0.082,-0.69C0.082,-0.697 0.085,-0.7 0.092,-0.7L0.168,-0.7C0.175,-0.7 0.178,-0.697 0.178,-0.69L0.178,-0.01C0.178,-0.003 0.175,0 0.168,0L0.092,0ZM0.089,-0.764C0.085,-0.764 0.082,-0.765 0.081,-0.768C0.079,-0.77 0.079,-0.773 0.081,-0.776L0.14,-0.884C0.142,-0.889 0.146,-0.891 0.152,-0.891L0.219,-0.891C0.223,-0.891 0.226,-0.89 0.227,-0.888C0.228,-0.885 0.227,-0.882 0.225,-0.879L0.154,-0.771C0.151,-0.766 0.147,-0.764 0.142,-0.764L0.089,-0.764Z" style="fill-rule:nonzero;"/>
            </g>
            <g transform="matrix(85.0509,0,0,85.0509,1887.18,1580.48)">
                <path d="M0.298,0.008C0.247,0.008 0.202,0 0.165,-0.016C0.127,-0.032 0.098,-0.055 0.078,-0.084C0.057,-0.113 0.047,-0.148 0.047,-0.187L0.047,-0.216C0.047,-0.223 0.05,-0.226 0.057,-0.226L0.13,-0.226C0.137,-0.226 0.14,-0.223 0.14,-0.216L0.14,-0.192C0.14,-0.158 0.155,-0.13 0.184,-0.108C0.213,-0.086 0.254,-0.075 0.305,-0.075C0.351,-0.075 0.386,-0.085 0.409,-0.104C0.432,-0.123 0.444,-0.149 0.444,-0.18C0.444,-0.201 0.438,-0.218 0.426,-0.233C0.414,-0.248 0.397,-0.261 0.374,-0.274C0.351,-0.286 0.317,-0.301 0.273,-0.318C0.224,-0.337 0.186,-0.354 0.158,-0.369C0.129,-0.384 0.106,-0.405 0.087,-0.43C0.068,-0.455 0.059,-0.486 0.059,-0.524C0.059,-0.581 0.08,-0.626 0.121,-0.659C0.162,-0.692 0.217,-0.708 0.287,-0.708C0.336,-0.708 0.38,-0.7 0.417,-0.683C0.454,-0.666 0.483,-0.643 0.504,-0.613C0.524,-0.583 0.534,-0.548 0.534,-0.509L0.534,-0.489C0.534,-0.482 0.531,-0.479 0.524,-0.479L0.449,-0.479C0.442,-0.479 0.439,-0.482 0.439,-0.489L0.439,-0.504C0.439,-0.539 0.425,-0.568 0.398,-0.591C0.37,-0.614 0.332,-0.625 0.283,-0.625C0.242,-0.625 0.21,-0.616 0.187,-0.6C0.164,-0.583 0.153,-0.558 0.153,-0.526C0.153,-0.504 0.159,-0.486 0.17,-0.472C0.181,-0.458 0.198,-0.446 0.221,-0.435C0.243,-0.424 0.277,-0.409 0.323,-0.392C0.37,-0.373 0.409,-0.356 0.438,-0.341C0.467,-0.325 0.492,-0.304 0.511,-0.279C0.53,-0.253 0.54,-0.221 0.54,-0.183C0.54,-0.124 0.519,-0.078 0.476,-0.044C0.433,-0.009 0.373,0.008 0.298,0.008Z" style="fill-rule:nonzero;"/>
            </g>
            <g transform="matrix(85.0509,0,0,85.0509,1952.75,1580.48)">
                <path d="M0.527,-0.7C0.534,-0.7 0.537,-0.697 0.537,-0.69L0.537,-0.626C0.537,-0.619 0.534,-0.616 0.527,-0.616L0.335,-0.616C0.332,-0.616 0.331,-0.615 0.331,-0.612L0.331,-0.01C0.331,-0.003 0.328,0 0.321,0L0.245,0C0.238,0 0.235,-0.003 0.235,-0.01L0.235,-0.612C0.235,-0.615 0.234,-0.616 0.231,-0.616L0.048,-0.616C0.041,-0.616 0.038,-0.619 0.038,-0.626L0.038,-0.69C0.038,-0.697 0.041,-0.7 0.048,-0.7L0.527,-0.7Z" style="fill-rule:nonzero;"/>
            </g>
            <g transform="matrix(85.0509,0,0,85.0509,2018.58,1580.48)">
                <path d="M0.321,0.008C0.272,0.008 0.23,-0.002 0.193,-0.021C0.156,-0.04 0.127,-0.067 0.106,-0.102C0.085,-0.136 0.075,-0.177 0.075,-0.222L0.075,-0.69C0.075,-0.697 0.078,-0.7 0.085,-0.7L0.161,-0.7C0.168,-0.7 0.171,-0.697 0.171,-0.69L0.171,-0.22C0.171,-0.177 0.185,-0.142 0.213,-0.115C0.24,-0.088 0.276,-0.075 0.321,-0.075C0.366,-0.075 0.402,-0.088 0.429,-0.115C0.456,-0.142 0.47,-0.177 0.47,-0.22L0.47,-0.69C0.47,-0.697 0.473,-0.7 0.48,-0.7L0.556,-0.7C0.563,-0.7 0.566,-0.697 0.566,-0.69L0.566,-0.222C0.566,-0.177 0.556,-0.136 0.536,-0.102C0.515,-0.067 0.487,-0.04 0.45,-0.021C0.413,-0.002 0.37,0.008 0.321,0.008Z" style="fill-rule:nonzero;"/>
            </g>
            <g transform="matrix(85.0509,0,0,85.0509,2090.11,1580.48)">
                <path d="M0.092,0C0.085,0 0.082,-0.003 0.082,-0.01L0.082,-0.69C0.082,-0.697 0.085,-0.7 0.092,-0.7L0.334,-0.7C0.403,-0.7 0.459,-0.682 0.5,-0.646C0.541,-0.609 0.562,-0.561 0.562,-0.5L0.562,-0.2C0.562,-0.139 0.541,-0.091 0.5,-0.055C0.459,-0.018 0.403,0 0.334,0L0.092,0ZM0.178,-0.087C0.178,-0.084 0.179,-0.083 0.182,-0.083L0.338,-0.083C0.377,-0.083 0.408,-0.095 0.431,-0.119C0.454,-0.142 0.465,-0.174 0.466,-0.214L0.466,-0.486C0.466,-0.526 0.455,-0.558 0.432,-0.582C0.409,-0.605 0.377,-0.617 0.338,-0.617L0.182,-0.617C0.179,-0.617 0.178,-0.616 0.178,-0.613L0.178,-0.087Z" style="fill-rule:nonzero;"/>
            </g>
            <g transform="matrix(85.0509,0,0,85.0509,2159.68,1580.48)">
                <path d="M0.092,0C0.085,0 0.082,-0.003 0.082,-0.01L0.082,-0.69C0.082,-0.697 0.085,-0.7 0.092,-0.7L0.168,-0.7C0.175,-0.7 0.178,-0.697 0.178,-0.69L0.178,-0.01C0.178,-0.003 0.175,0 0.168,0L0.092,0Z" style="fill-rule:nonzero;"/>
            </g>
            <g transform="matrix(85.0509,0,0,85.0509,2198.8,1580.48)">
                <path d="M0.31,0.009C0.261,0.009 0.218,-0.001 0.181,-0.021C0.144,-0.041 0.115,-0.069 0.094,-0.106C0.073,-0.142 0.063,-0.184 0.063,-0.231L0.063,-0.469C0.063,-0.516 0.073,-0.558 0.094,-0.594C0.115,-0.63 0.144,-0.658 0.181,-0.678C0.218,-0.698 0.261,-0.708 0.31,-0.708C0.359,-0.708 0.403,-0.698 0.44,-0.678C0.477,-0.658 0.506,-0.63 0.527,-0.594C0.548,-0.558 0.558,-0.516 0.558,-0.469L0.558,-0.231C0.558,-0.184 0.548,-0.142 0.527,-0.106C0.506,-0.069 0.477,-0.041 0.44,-0.021C0.403,-0.001 0.359,0.009 0.31,0.009ZM0.31,-0.074C0.355,-0.074 0.392,-0.088 0.42,-0.116C0.448,-0.144 0.462,-0.181 0.462,-0.227L0.462,-0.47C0.462,-0.517 0.448,-0.554 0.42,-0.583C0.392,-0.611 0.355,-0.625 0.31,-0.625C0.265,-0.625 0.228,-0.611 0.201,-0.583C0.173,-0.554 0.159,-0.517 0.159,-0.47L0.159,-0.227C0.159,-0.181 0.173,-0.144 0.201,-0.116C0.228,-0.088 0.265,-0.074 0.31,-0.074Z" style="fill-rule:nonzero;"/>
            </g>
        </g>
    </g>
</svg>
